<svg xmlns="http://www.w3.org/2000/svg" width="224.15" height="298.32" viewBox="0 0 224.15 298.32"><defs><style>.a,.b,.c,.d,.e,.f,.g,.h{fill:none;stroke-miterlimit:10;stroke-width:9px;}.a,.e{stroke:#009edf;}.b{stroke:#06a;stroke-dasharray:60 12 20 12 500;}.c,.f,.g,.h{stroke:#00ad9d;}.c{stroke-dasharray:16 12 30 12 600;}.d{stroke:#008775;}.e{stroke-dasharray:20 40 800 12 50;}.f{stroke-dasharray:20 12 70 12 600;}.g{stroke-linecap:square;stroke-dasharray:20 22 20 22 500;}</style></defs><title>Vector Smart Object</title><rect class="a" x="4.5" y="109.5" width="215.15" height="184.32"/><line class="b" x1="197.09" y1="276.21" x2="197.09" y2="132.06"/><polyline class="b" points="27.06 147.91 27.06 271.26 179.99 271.26"/><polyline class="c" points="174.53 168.23 174.53 248.7 49.62 248.7 49.62 192.55"/><path class="d" d="M645.92,3377.49v-19.26a23.06,23.06,0,1,0-17.81,0v19.26" transform="translate(-524.94 -3152.63)"/><path class="e" d="M724.77,3244.88a87.76,87.76,0,0,0-175.51,0" transform="translate(-524.94 -3152.63)"/><path class="b" d="M704.24,3244.88a67.23,67.23,0,0,0-134.46,0" transform="translate(-524.94 -3152.63)"/><path class="a" d="M562.6,3243.81" transform="translate(-524.94 -3152.63)"/><path class="f" d="M682.18,3233a46.71,46.71,0,0,0-91.87,11.93" transform="translate(-524.94 -3152.63)"/><line class="g" x1="148.41" y1="132.06" x2="27.06" y2="132.06"/><line class="h" x1="49.62" y1="156.01" x2="49.62" y2="179.57"/></svg>