<svg xmlns="http://www.w3.org/2000/svg" width="328.5" height="295.67" viewBox="0 0 328.5 295.67"><defs><style>.a{fill:#00ae9e;}.b{fill:none;stroke:#00ae9e;stroke-linecap:square;stroke-miterlimit:10;stroke-width:9px;}.c{fill:#009fdf;}.d{fill:#0066ab;}.e{fill:#008774;}</style></defs><title>Asset 1</title><polygon class="a" points="319.5 143.33 319.5 286.67 199 286.67 199 295.67 328.5 295.67 328.5 143.33 319.5 143.33"/><path class="b" d="M180.67,147.83"/><polygon class="c" points="138.68 105.85 79.32 105.85 79.32 96.85 129.68 96.85 129.68 55.49 79.32 55.49 79.32 46.49 138.68 46.49 138.68 105.85"/><polygon class="c" points="328.5 152.33 199.33 152.33 199.33 143.33 319.5 143.33 319.5 9 176.17 9 176.17 0 328.5 0 328.5 152.33"/><polygon class="a" points="282.01 105.85 222.65 105.85 222.65 96.85 273.01 96.85 273.01 55.49 222.65 55.49 222.65 46.49 282.01 46.49 282.01 105.85"/><polygon class="d" points="32.83 0 32.83 82.75 41.83 82.75 41.83 9 176.17 9 176.17 152.33 185.17 152.33 185.17 0 32.83 0"/><rect class="e" x="55.51" y="166.58" width="9.57" height="9"/><rect class="d" y="143.33" width="41.51" height="9"/><rect class="d" x="55.51" y="143.33" width="123.57" height="9"/><rect class="d" x="79.32" y="240.18" width="105.68" height="9"/><polygon class="d" points="176 189.82 176 198.82 273.01 198.82 273.01 240.18 222.65 240.18 222.65 249.18 282.01 249.18 282.01 189.82 176 189.82"/><rect class="e" x="79.08" y="166.58" width="82.92" height="9"/><polygon class="e" points="176 166.58 176 175.58 296.26 175.58 296.26 263.43 208.41 263.43 208.41 213 199.41 213 199.41 272.43 305.26 272.43 305.26 166.58 176 166.58"/><rect class="a" x="79.32" y="286.67" width="82.68" height="9"/><rect class="a" x="176" y="286.67" width="9" height="9"/><rect class="a" x="199.41" y="96.75" width="9" height="9.29"/><polygon class="e" points="199.41 23.24 199.41 82.75 208.41 82.75 208.41 32.24 296.26 32.24 296.26 120.09 296.18 120.09 296.18 129.09 305.26 129.09 305.26 23.24 199.41 23.24"/><rect class="c" y="96.85" width="41.51" height="9"/><rect class="c" x="56.08" y="96.83" width="9" height="8.76"/><polygon class="e" points="152.92 106.04 161.92 106.04 161.92 23.24 56.08 23.24 56.08 32.24 65.08 32.24 152.92 32.24 152.92 106.04"/><rect class="e" x="152.92" y="120.09" width="9" height="9"/></svg>