<svg xmlns="http://www.w3.org/2000/svg" width="5.38in" height="5.38in" viewBox="0 0 387 387"><defs><style>.a{fill:#0066ac;}.b{fill:#00ae9e;}.c{fill:#038774;}.d{fill:#009fdf;}.e{fill:none;}</style></defs><title>icon-efficiency-k8s</title><path class="a" d="M3796.18,90.41l-9.68,2.21a100.67,100.67,0,0,1-17.67,77.19l7.76,6.19a110.54,110.54,0,0,0,19.58-85.59Z" transform="translate(-3493.88 75.56)"/><path class="a" d="M3639.66,21.93,3635.35,13a111.14,111.14,0,0,0-54.77,68.64l9.68,2.21A101.18,101.18,0,0,1,3639.66,21.93Z" transform="translate(-3493.88 75.56)"/><path class="a" d="M3691.89,211.25v9.93A110.46,110.46,0,0,0,3771,183.05l-7.76-6.19A100.55,100.55,0,0,1,3691.89,211.25Z" transform="translate(-3493.88 75.56)"/><path class="a" d="M3611.55,176.86l-7.76,6.19a110.46,110.46,0,0,0,79.08,38.13v-9.93A100.55,100.55,0,0,1,3611.55,176.86Z" transform="translate(-3493.88 75.56)"/><path class="a" d="M3735.1,21.93a101.18,101.18,0,0,1,49.39,61.91l9.68-2.21A111.14,111.14,0,0,0,3739.4,13q-4-2.12-8.12-3.92a110.55,110.55,0,0,0-87.81,0l4.31,8.94a100.67,100.67,0,0,1,79.2,0Q3731.14,19.79,3735.1,21.93Z" transform="translate(-3493.88 75.56)"/><path class="b" d="M3770.39,96.3a83.51,83.51,0,0,0-2-8.79l-9.71,2.22a73.67,73.67,0,0,1,2,8.79,74,74,0,0,1-12.54,54.8l7.78,6.2a84.14,84.14,0,0,0,14.46-63.22Z" transform="translate(-3493.88 75.56)"/><path class="b" d="M3691.89,184.78v9.95a84.07,84.07,0,0,0,58.41-28.17l-7.77-6.19A74.16,74.16,0,0,1,3691.89,184.78Z" transform="translate(-3493.88 75.56)"/><path class="b" d="M3719.81,32.89a83.93,83.93,0,0,0-73,3.93,84.61,84.61,0,0,0-40.46,50.69,83.51,83.51,0,0,0-2,8.79,84.15,84.15,0,0,0,14.46,63.22l7.78-6.2a74.13,74.13,0,0,1-10.53-63.59,74.26,74.26,0,0,1,99.41-47.87Z" transform="translate(-3493.88 75.56)"/><path class="b" d="M3632.23,160.37l-7.76,6.19a84.07,84.07,0,0,0,58.41,28.17v-9.95A74.16,74.16,0,0,1,3632.23,160.37Z" transform="translate(-3493.88 75.56)"/><path class="c" d="M3744.57,102.19a57.31,57.31,0,0,0-2-8.79,58.07,58.07,0,0,0-26.13-32.72l-4.31,9a48.12,48.12,0,0,1,20.72,26,47.5,47.5,0,0,1,2,8.79,48.09,48.09,0,0,1,.42,6.21,47.59,47.59,0,0,1-7.82,26.18,48.06,48.06,0,0,1-35.56,21.49v9.95a57.77,57.77,0,0,0,52.68-66Z" transform="translate(-3493.88 75.56)"/><path class="c" d="M3708.32,56.75a57.62,57.62,0,0,0-50,3.92,58.08,58.08,0,0,0-26.13,32.72l9.72,2.22A47.87,47.87,0,0,1,3704,65.71Z" transform="translate(-3493.88 75.56)"/><path class="c" d="M3647.31,136.81a47.51,47.51,0,0,1-7.41-32.39l-9.72-2.22a57.86,57.86,0,0,0,52.68,66v-9.95a48.06,48.06,0,0,1-35.56-21.49Z" transform="translate(-3493.88 75.56)"/><path class="d" d="M3632-14.85l4.31,9a128.12,128.12,0,0,1,102.22,0l4.31-9a138.14,138.14,0,0,0-110.84,0Z" transform="translate(-3493.88 75.56)"/><path class="d" d="M3750.92-10.93,3746.61-2a127.65,127.65,0,0,1,63.71,79.92l9.68-2.21a137.6,137.6,0,0,0-69.08-86.66Z" transform="translate(-3493.88 75.56)"/><path class="d" d="M3560.22,110.62a128.78,128.78,0,0,1,2.23-23.89l-9.68-2.21a138.75,138.75,0,0,0-2.47,26.1,136.12,136.12,0,0,0,27.11,81.93l7.76-6.19A126.28,126.28,0,0,1,3560.22,110.62Z" transform="translate(-3493.88 75.56)"/><path class="d" d="M3597.44,200.56q-3.47-3.47-6.63-7.16l-7.76,6.19q3.52,4.11,7.38,8a136.11,136.11,0,0,0,92.44,40v-9.93A126.26,126.26,0,0,1,3597.44,200.56Z" transform="translate(-3493.88 75.56)"/><path class="d" d="M3682.87,247.62v31.17c1.5,0,7.52,0,9,0V247.62C3690.39,247.67,3684.37,247.67,3682.87,247.62Z" transform="translate(-3493.88 75.56)"/><path class="d" d="M3789.59,186.36q-2.68,3.61-5.64,7l7.76,6.19L3816.08,219q2.92-3.46,5.64-7l-24.37-19.44Z" transform="translate(-3493.88 75.56)"/><path class="d" d="M3850.4,68.79,3820,75.73q1.14,4.35,2,8.8l30.41-6.94Q3851.52,73.15,3850.4,68.79Z" transform="translate(-3493.88 75.56)"/><path class="d" d="M3756.33-43l-13.53,28.1q4.12,1.82,8.12,3.92L3764.45-39Q3760.44-41.1,3756.33-43Z" transform="translate(-3493.88 75.56)"/><path class="d" d="M3610.31-39l13.53,28.1q4-2.09,8.12-3.92L3618.43-43Q3614.32-41.1,3610.31-39Z" transform="translate(-3493.88 75.56)"/><path class="d" d="M3524.35,68.79q-1.11,4.36-2,8.8l30.41,6.94q.85-4.44,2-8.8Z" transform="translate(-3493.88 75.56)"/><path class="d" d="M3553,212l-3.53,2.81,5.62,7.05,3.54-2.82L3583,199.59q-2.94-3.44-5.64-7Z" transform="translate(-3493.88 75.56)"/><rect class="e" width="387" height="387"/></svg>